<mxfile host="app.diagrams.net" modified="2023-06-21T21:06:23.682Z" agent="Mozilla/5.0 (Windows NT 10.0; Win64; x64) AppleWebKit/537.36 (KHTML, like Gecko) Chrome/114.0.0.0 Safari/537.36" etag="DyMJpTTo25y5kRZn0WUT" version="21.5.0" type="github">
  <diagram name="Page-1" id="929967ad-93f9-6ef4-fab6-5d389245f69c">
    <mxGraphModel dx="1536" dy="-455" grid="1" gridSize="10" guides="1" tooltips="1" connect="1" arrows="1" fold="1" page="1" pageScale="1.5" pageWidth="1169" pageHeight="826" background="none" math="0" shadow="0">
      <root>
        <mxCell id="0" style=";html=1;" />
        <mxCell id="1" style=";html=1;" parent="0" />
        <mxCell id="1672d66443f91eb5-1" value="&lt;p style=&quot;margin: 4px 0px 0px 10px; text-align: left; font-size: 14px;&quot;&gt;&lt;b&gt;sm&lt;/b&gt;&amp;nbsp;System&lt;/p&gt;" style="html=1;strokeWidth=1;shape=mxgraph.sysml.package;html=1;overflow=fill;whiteSpace=wrap;fillColor=none;gradientColor=none;fontSize=12;align=center;labelX=104;" parent="1" vertex="1">
          <mxGeometry x="410" y="1330" width="740" height="710" as="geometry" />
        </mxCell>
        <mxCell id="L4SQS4QbaZppZbxG4Gkv-6" style="edgeStyle=orthogonalEdgeStyle;rounded=0;orthogonalLoop=1;jettySize=auto;html=1;entryX=0;entryY=0.5;entryDx=0;entryDy=0;endArrow=block;endFill=0;" edge="1" parent="1" source="L4SQS4QbaZppZbxG4Gkv-1" target="L4SQS4QbaZppZbxG4Gkv-3">
          <mxGeometry relative="1" as="geometry" />
        </mxCell>
        <mxCell id="L4SQS4QbaZppZbxG4Gkv-1" value="System &quot;Aus&quot;" style="rounded=1;whiteSpace=wrap;html=1;fontStyle=1;fontSize=14;" vertex="1" parent="1">
          <mxGeometry x="720" y="1360" width="120" height="60" as="geometry" />
        </mxCell>
        <mxCell id="L4SQS4QbaZppZbxG4Gkv-5" style="edgeStyle=orthogonalEdgeStyle;rounded=0;orthogonalLoop=1;jettySize=auto;html=1;entryX=0;entryY=0.5;entryDx=0;entryDy=0;endArrow=block;endFill=0;" edge="1" parent="1" source="L4SQS4QbaZppZbxG4Gkv-2" target="L4SQS4QbaZppZbxG4Gkv-1">
          <mxGeometry relative="1" as="geometry" />
        </mxCell>
        <mxCell id="L4SQS4QbaZppZbxG4Gkv-2" value="" style="ellipse;whiteSpace=wrap;html=1;aspect=fixed;fillColor=#000000;" vertex="1" parent="1">
          <mxGeometry x="620" y="1375" width="30" height="30" as="geometry" />
        </mxCell>
        <mxCell id="L4SQS4QbaZppZbxG4Gkv-3" value="" style="ellipse;whiteSpace=wrap;html=1;aspect=fixed;" vertex="1" parent="1">
          <mxGeometry x="900" y="1375" width="30" height="30" as="geometry" />
        </mxCell>
        <mxCell id="L4SQS4QbaZppZbxG4Gkv-4" value="" style="ellipse;whiteSpace=wrap;html=1;aspect=fixed;" vertex="1" parent="1">
          <mxGeometry x="907.5" y="1382.5" width="15" height="15" as="geometry" />
        </mxCell>
        <mxCell id="L4SQS4QbaZppZbxG4Gkv-9" value="" style="rounded=1;whiteSpace=wrap;html=1;" vertex="1" parent="1">
          <mxGeometry x="442.5" y="1440" width="675" height="570" as="geometry" />
        </mxCell>
        <mxCell id="L4SQS4QbaZppZbxG4Gkv-10" value="" style="endArrow=none;html=1;rounded=0;exitX=0.029;exitY=0.055;exitDx=0;exitDy=0;exitPerimeter=0;entryX=0.971;entryY=0.054;entryDx=0;entryDy=0;entryPerimeter=0;" edge="1" parent="1" source="L4SQS4QbaZppZbxG4Gkv-9" target="L4SQS4QbaZppZbxG4Gkv-9">
          <mxGeometry width="50" height="50" relative="1" as="geometry">
            <mxPoint x="489.9950000000001" y="1470" as="sourcePoint" />
            <mxPoint x="1110" y="1473" as="targetPoint" />
          </mxGeometry>
        </mxCell>
        <mxCell id="L4SQS4QbaZppZbxG4Gkv-42" style="edgeStyle=orthogonalEdgeStyle;rounded=0;orthogonalLoop=1;jettySize=auto;html=1;exitX=0.75;exitY=0;exitDx=0;exitDy=0;entryX=0.75;entryY=1;entryDx=0;entryDy=0;endArrow=block;endFill=0;" edge="1" parent="1" source="L4SQS4QbaZppZbxG4Gkv-11" target="L4SQS4QbaZppZbxG4Gkv-1">
          <mxGeometry relative="1" as="geometry" />
        </mxCell>
        <mxCell id="L4SQS4QbaZppZbxG4Gkv-43" style="edgeStyle=orthogonalEdgeStyle;rounded=0;orthogonalLoop=1;jettySize=auto;html=1;exitX=0.25;exitY=0;exitDx=0;exitDy=0;entryX=0.25;entryY=1;entryDx=0;entryDy=0;startArrow=block;startFill=0;endArrow=none;endFill=0;" edge="1" parent="1" source="L4SQS4QbaZppZbxG4Gkv-11" target="L4SQS4QbaZppZbxG4Gkv-1">
          <mxGeometry relative="1" as="geometry">
            <Array as="points">
              <mxPoint x="740" y="1420" />
            </Array>
          </mxGeometry>
        </mxCell>
        <mxCell id="L4SQS4QbaZppZbxG4Gkv-11" value="&lt;font style=&quot;font-size: 14px;&quot;&gt;&lt;b&gt;System &quot;An&quot;&lt;/b&gt;&lt;/font&gt;" style="rounded=0;whiteSpace=wrap;html=1;fillColor=none;strokeColor=none;" vertex="1" parent="1">
          <mxGeometry x="700" y="1440" width="160" height="30" as="geometry" />
        </mxCell>
        <mxCell id="L4SQS4QbaZppZbxG4Gkv-15" value="" style="rounded=1;whiteSpace=wrap;html=1;" vertex="1" parent="1">
          <mxGeometry x="471.25" y="1480" width="617.5" height="230" as="geometry" />
        </mxCell>
        <mxCell id="L4SQS4QbaZppZbxG4Gkv-16" value="" style="endArrow=none;html=1;rounded=0;exitX=0.001;exitY=0.131;exitDx=0;exitDy=0;exitPerimeter=0;entryX=1;entryY=0.137;entryDx=0;entryDy=0;entryPerimeter=0;" edge="1" source="L4SQS4QbaZppZbxG4Gkv-15" target="L4SQS4QbaZppZbxG4Gkv-15" parent="1">
          <mxGeometry width="50" height="50" relative="1" as="geometry">
            <mxPoint x="518.7450000000001" y="1510" as="sourcePoint" />
            <mxPoint x="1138.75" y="1513" as="targetPoint" />
          </mxGeometry>
        </mxCell>
        <mxCell id="L4SQS4QbaZppZbxG4Gkv-17" value="&lt;font style=&quot;font-size: 14px;&quot;&gt;&lt;b&gt;Energiebedarfserfassung&lt;/b&gt;&lt;/font&gt;" style="rounded=0;whiteSpace=wrap;html=1;fillColor=none;strokeColor=none;" vertex="1" parent="1">
          <mxGeometry x="700" y="1480" width="160" height="30" as="geometry" />
        </mxCell>
        <mxCell id="L4SQS4QbaZppZbxG4Gkv-22" style="edgeStyle=orthogonalEdgeStyle;rounded=0;orthogonalLoop=1;jettySize=auto;html=1;exitX=1;exitY=0.5;exitDx=0;exitDy=0;entryX=0;entryY=0.5;entryDx=0;entryDy=0;endArrow=block;endFill=0;" edge="1" parent="1" source="L4SQS4QbaZppZbxG4Gkv-18" target="L4SQS4QbaZppZbxG4Gkv-19">
          <mxGeometry relative="1" as="geometry" />
        </mxCell>
        <mxCell id="L4SQS4QbaZppZbxG4Gkv-18" value="" style="ellipse;whiteSpace=wrap;html=1;aspect=fixed;fillColor=#000000;" vertex="1" parent="1">
          <mxGeometry x="490" y="1590" width="30" height="30" as="geometry" />
        </mxCell>
        <mxCell id="L4SQS4QbaZppZbxG4Gkv-23" style="edgeStyle=orthogonalEdgeStyle;rounded=0;orthogonalLoop=1;jettySize=auto;html=1;exitX=1;exitY=0.5;exitDx=0;exitDy=0;entryX=0;entryY=0.5;entryDx=0;entryDy=0;endArrow=block;endFill=0;" edge="1" parent="1" source="L4SQS4QbaZppZbxG4Gkv-19" target="L4SQS4QbaZppZbxG4Gkv-20">
          <mxGeometry relative="1" as="geometry" />
        </mxCell>
        <mxCell id="L4SQS4QbaZppZbxG4Gkv-19" value="eingehende Sensordaten vom ES" style="rounded=1;whiteSpace=wrap;html=1;fontStyle=1;fontSize=14;" vertex="1" parent="1">
          <mxGeometry x="550" y="1575" width="120" height="60" as="geometry" />
        </mxCell>
        <mxCell id="L4SQS4QbaZppZbxG4Gkv-24" style="edgeStyle=orthogonalEdgeStyle;rounded=0;orthogonalLoop=1;jettySize=auto;html=1;exitX=1;exitY=0.5;exitDx=0;exitDy=0;entryX=0;entryY=0.5;entryDx=0;entryDy=0;endArrow=block;endFill=0;" edge="1" parent="1" source="L4SQS4QbaZppZbxG4Gkv-20" target="L4SQS4QbaZppZbxG4Gkv-21">
          <mxGeometry relative="1" as="geometry" />
        </mxCell>
        <mxCell id="L4SQS4QbaZppZbxG4Gkv-20" value="Verarbeitung Sensordaten" style="rounded=1;whiteSpace=wrap;html=1;fontStyle=1;fontSize=14;" vertex="1" parent="1">
          <mxGeometry x="720" y="1575" width="120" height="60" as="geometry" />
        </mxCell>
        <mxCell id="L4SQS4QbaZppZbxG4Gkv-25" style="edgeStyle=orthogonalEdgeStyle;rounded=0;orthogonalLoop=1;jettySize=auto;html=1;exitX=0.5;exitY=1;exitDx=0;exitDy=0;entryX=0.5;entryY=1;entryDx=0;entryDy=0;endArrow=block;endFill=0;" edge="1" parent="1" source="L4SQS4QbaZppZbxG4Gkv-21" target="L4SQS4QbaZppZbxG4Gkv-19">
          <mxGeometry relative="1" as="geometry">
            <Array as="points">
              <mxPoint x="950" y="1670" />
              <mxPoint x="610" y="1670" />
            </Array>
          </mxGeometry>
        </mxCell>
        <mxCell id="L4SQS4QbaZppZbxG4Gkv-21" value="Daten an AS Ã¼bermitteln" style="rounded=1;whiteSpace=wrap;html=1;fontStyle=1;fontSize=14;" vertex="1" parent="1">
          <mxGeometry x="890" y="1575" width="120" height="60" as="geometry" />
        </mxCell>
        <mxCell id="L4SQS4QbaZppZbxG4Gkv-29" value="" style="rounded=1;whiteSpace=wrap;html=1;" vertex="1" parent="1">
          <mxGeometry x="471.25" y="1744" width="617.5" height="230" as="geometry" />
        </mxCell>
        <mxCell id="L4SQS4QbaZppZbxG4Gkv-30" value="" style="endArrow=none;html=1;rounded=0;exitX=0.001;exitY=0.131;exitDx=0;exitDy=0;exitPerimeter=0;entryX=1;entryY=0.137;entryDx=0;entryDy=0;entryPerimeter=0;" edge="1" source="L4SQS4QbaZppZbxG4Gkv-29" target="L4SQS4QbaZppZbxG4Gkv-29" parent="1">
          <mxGeometry width="50" height="50" relative="1" as="geometry">
            <mxPoint x="518.7450000000001" y="1774" as="sourcePoint" />
            <mxPoint x="1138.75" y="1777" as="targetPoint" />
          </mxGeometry>
        </mxCell>
        <mxCell id="L4SQS4QbaZppZbxG4Gkv-44" style="edgeStyle=orthogonalEdgeStyle;rounded=0;orthogonalLoop=1;jettySize=auto;html=1;exitX=0.25;exitY=0;exitDx=0;exitDy=0;startArrow=block;startFill=0;endArrow=none;endFill=0;" edge="1" parent="1" source="L4SQS4QbaZppZbxG4Gkv-31">
          <mxGeometry relative="1" as="geometry">
            <mxPoint x="740" y="1710" as="targetPoint" />
            <Array as="points">
              <mxPoint x="740" y="1710" />
            </Array>
          </mxGeometry>
        </mxCell>
        <mxCell id="L4SQS4QbaZppZbxG4Gkv-45" style="edgeStyle=orthogonalEdgeStyle;rounded=0;orthogonalLoop=1;jettySize=auto;html=1;exitX=0.75;exitY=0;exitDx=0;exitDy=0;entryX=0.565;entryY=0.997;entryDx=0;entryDy=0;entryPerimeter=0;endArrow=block;endFill=0;" edge="1" parent="1" source="L4SQS4QbaZppZbxG4Gkv-31" target="L4SQS4QbaZppZbxG4Gkv-15">
          <mxGeometry relative="1" as="geometry" />
        </mxCell>
        <mxCell id="L4SQS4QbaZppZbxG4Gkv-31" value="&lt;font style=&quot;font-size: 14px;&quot;&gt;&lt;b&gt;Energieregelung&lt;/b&gt;&lt;/font&gt;" style="rounded=0;whiteSpace=wrap;html=1;fillColor=none;strokeColor=none;" vertex="1" parent="1">
          <mxGeometry x="700" y="1744" width="160" height="30" as="geometry" />
        </mxCell>
        <mxCell id="L4SQS4QbaZppZbxG4Gkv-32" style="edgeStyle=orthogonalEdgeStyle;rounded=0;orthogonalLoop=1;jettySize=auto;html=1;exitX=1;exitY=0.5;exitDx=0;exitDy=0;entryX=0;entryY=0.5;entryDx=0;entryDy=0;endArrow=block;endFill=0;" edge="1" source="L4SQS4QbaZppZbxG4Gkv-33" target="L4SQS4QbaZppZbxG4Gkv-35" parent="1">
          <mxGeometry relative="1" as="geometry" />
        </mxCell>
        <mxCell id="L4SQS4QbaZppZbxG4Gkv-33" value="" style="ellipse;whiteSpace=wrap;html=1;aspect=fixed;fillColor=#000000;" vertex="1" parent="1">
          <mxGeometry x="490" y="1854" width="30" height="30" as="geometry" />
        </mxCell>
        <mxCell id="L4SQS4QbaZppZbxG4Gkv-34" style="edgeStyle=orthogonalEdgeStyle;rounded=0;orthogonalLoop=1;jettySize=auto;html=1;exitX=1;exitY=0.5;exitDx=0;exitDy=0;entryX=0;entryY=0.5;entryDx=0;entryDy=0;endArrow=block;endFill=0;" edge="1" source="L4SQS4QbaZppZbxG4Gkv-35" target="L4SQS4QbaZppZbxG4Gkv-37" parent="1">
          <mxGeometry relative="1" as="geometry" />
        </mxCell>
        <mxCell id="L4SQS4QbaZppZbxG4Gkv-35" value="Datenempfang von EnergiekapazitÃ¤t&amp;nbsp;" style="rounded=1;whiteSpace=wrap;html=1;fontStyle=1;fontSize=14;" vertex="1" parent="1">
          <mxGeometry x="550" y="1839" width="120" height="60" as="geometry" />
        </mxCell>
        <mxCell id="L4SQS4QbaZppZbxG4Gkv-36" style="edgeStyle=orthogonalEdgeStyle;rounded=0;orthogonalLoop=1;jettySize=auto;html=1;exitX=1;exitY=0.5;exitDx=0;exitDy=0;entryX=0;entryY=0.5;entryDx=0;entryDy=0;endArrow=block;endFill=0;" edge="1" source="L4SQS4QbaZppZbxG4Gkv-37" target="L4SQS4QbaZppZbxG4Gkv-39" parent="1">
          <mxGeometry relative="1" as="geometry" />
        </mxCell>
        <mxCell id="L4SQS4QbaZppZbxG4Gkv-37" value="Verarbeitung Daten" style="rounded=1;whiteSpace=wrap;html=1;fontStyle=1;fontSize=14;" vertex="1" parent="1">
          <mxGeometry x="720" y="1839" width="120" height="60" as="geometry" />
        </mxCell>
        <mxCell id="L4SQS4QbaZppZbxG4Gkv-38" style="edgeStyle=orthogonalEdgeStyle;rounded=0;orthogonalLoop=1;jettySize=auto;html=1;exitX=0.5;exitY=1;exitDx=0;exitDy=0;entryX=0.5;entryY=1;entryDx=0;entryDy=0;endArrow=block;endFill=0;" edge="1" source="L4SQS4QbaZppZbxG4Gkv-39" target="L4SQS4QbaZppZbxG4Gkv-35" parent="1">
          <mxGeometry relative="1" as="geometry">
            <Array as="points">
              <mxPoint x="950" y="1940" />
              <mxPoint x="610" y="1940" />
            </Array>
          </mxGeometry>
        </mxCell>
        <mxCell id="L4SQS4QbaZppZbxG4Gkv-39" value="Schaltbefehle an ES Ã¼bermitteln" style="rounded=1;whiteSpace=wrap;html=1;fontStyle=1;fontSize=14;" vertex="1" parent="1">
          <mxGeometry x="890" y="1839" width="120" height="60" as="geometry" />
        </mxCell>
      </root>
    </mxGraphModel>
  </diagram>
</mxfile>
